<mxfile host="Electron" modified="2024-02-05T00:16:25.119Z" agent="Mozilla/5.0 (Windows NT 10.0; Win64; x64) AppleWebKit/537.36 (KHTML, like Gecko) draw.io/22.1.2 Chrome/114.0.5735.289 Electron/25.9.4 Safari/537.36" etag="vvYqJQuVfY_0NPQc_1U_" version="22.1.2" type="device">
  <diagram name="Страница — 1" id="u75ACNwhpFaFO16GhtkE">
    <mxGraphModel dx="1434" dy="884" grid="1" gridSize="10" guides="1" tooltips="1" connect="1" arrows="1" fold="1" page="1" pageScale="1" pageWidth="827" pageHeight="1169" math="0" shadow="0">
      <root>
        <mxCell id="0" />
        <mxCell id="1" parent="0" />
        <mxCell id="VczyroX9Buosq_rVIC8h-3" value="" style="edgeStyle=orthogonalEdgeStyle;rounded=0;orthogonalLoop=1;jettySize=auto;html=1;" edge="1" parent="1" source="VczyroX9Buosq_rVIC8h-1" target="VczyroX9Buosq_rVIC8h-2">
          <mxGeometry relative="1" as="geometry" />
        </mxCell>
        <mxCell id="VczyroX9Buosq_rVIC8h-1" value="Начало" style="rounded=1;whiteSpace=wrap;html=1;" vertex="1" parent="1">
          <mxGeometry x="113.94" y="10" width="120" height="30" as="geometry" />
        </mxCell>
        <mxCell id="VczyroX9Buosq_rVIC8h-9" value="" style="edgeStyle=orthogonalEdgeStyle;rounded=0;orthogonalLoop=1;jettySize=auto;html=1;" edge="1" parent="1" source="VczyroX9Buosq_rVIC8h-2" target="VczyroX9Buosq_rVIC8h-8">
          <mxGeometry relative="1" as="geometry" />
        </mxCell>
        <mxCell id="VczyroX9Buosq_rVIC8h-14" style="edgeStyle=orthogonalEdgeStyle;rounded=0;orthogonalLoop=1;jettySize=auto;html=1;entryX=0.5;entryY=0;entryDx=0;entryDy=0;exitX=1;exitY=0.5;exitDx=0;exitDy=0;" edge="1" parent="1" source="VczyroX9Buosq_rVIC8h-2" target="VczyroX9Buosq_rVIC8h-13">
          <mxGeometry relative="1" as="geometry">
            <Array as="points">
              <mxPoint x="289.94" y="140" />
              <mxPoint x="289.94" y="280" />
              <mxPoint x="173.94" y="280" />
            </Array>
          </mxGeometry>
        </mxCell>
        <mxCell id="VczyroX9Buosq_rVIC8h-2" value="for (int i=0; i&amp;lt;N; i++)" style="shape=hexagon;perimeter=hexagonPerimeter2;whiteSpace=wrap;html=1;fixedSize=1;" vertex="1" parent="1">
          <mxGeometry x="77.94" y="120" width="192" height="40" as="geometry" />
        </mxCell>
        <mxCell id="VczyroX9Buosq_rVIC8h-4" value="" style="endArrow=none;dashed=1;html=1;dashPattern=1 3;strokeWidth=2;rounded=0;entryX=0;entryY=0.5;entryDx=0;entryDy=0;entryPerimeter=0;" edge="1" parent="1" target="VczyroX9Buosq_rVIC8h-5">
          <mxGeometry width="50" height="50" relative="1" as="geometry">
            <mxPoint x="172.94" y="63" as="sourcePoint" />
            <mxPoint x="319.94" y="80" as="targetPoint" />
          </mxGeometry>
        </mxCell>
        <mxCell id="VczyroX9Buosq_rVIC8h-5" value="" style="strokeWidth=2;html=1;shape=mxgraph.flowchart.annotation_2;align=left;labelPosition=right;pointerEvents=1;" vertex="1" parent="1">
          <mxGeometry x="319.94" y="20" width="50" height="90" as="geometry" />
        </mxCell>
        <mxCell id="VczyroX9Buosq_rVIC8h-7" value="#include &amp;lt;iostream&amp;gt;&lt;br&gt;using namespace std;&lt;br&gt;const int N = 5;&lt;br&gt;int main(){&lt;br&gt;&lt;span style=&quot;white-space: pre;&quot;&gt;&#x9;&lt;/span&gt;srand(time(0));&lt;br&gt;&lt;span style=&quot;white-space: pre;&quot;&gt;&#x9;&lt;/span&gt;int arr[N], matr[N][N], tmp;" style="text;html=1;align=left;verticalAlign=middle;resizable=0;points=[];autosize=1;strokeColor=none;fillColor=none;" vertex="1" parent="1">
          <mxGeometry x="359.94" y="15" width="190" height="100" as="geometry" />
        </mxCell>
        <mxCell id="VczyroX9Buosq_rVIC8h-10" style="edgeStyle=orthogonalEdgeStyle;rounded=0;orthogonalLoop=1;jettySize=auto;html=1;entryX=0;entryY=0.5;entryDx=0;entryDy=0;" edge="1" parent="1" source="VczyroX9Buosq_rVIC8h-8" target="VczyroX9Buosq_rVIC8h-2">
          <mxGeometry relative="1" as="geometry">
            <Array as="points">
              <mxPoint x="173.94" y="260" />
              <mxPoint x="57.94" y="260" />
              <mxPoint x="57.94" y="140" />
            </Array>
          </mxGeometry>
        </mxCell>
        <mxCell id="VczyroX9Buosq_rVIC8h-8" value="cin &amp;gt;&amp;gt; arr[i];" style="shape=parallelogram;perimeter=parallelogramPerimeter;whiteSpace=wrap;html=1;fixedSize=1;" vertex="1" parent="1">
          <mxGeometry x="113.94" y="200" width="120" height="40" as="geometry" />
        </mxCell>
        <mxCell id="VczyroX9Buosq_rVIC8h-11" value="1" style="text;html=1;align=center;verticalAlign=middle;resizable=0;points=[];autosize=1;strokeColor=none;fillColor=none;" vertex="1" parent="1">
          <mxGeometry x="143.94" y="160" width="30" height="30" as="geometry" />
        </mxCell>
        <mxCell id="VczyroX9Buosq_rVIC8h-12" value="0" style="text;html=1;align=center;verticalAlign=middle;resizable=0;points=[];autosize=1;strokeColor=none;fillColor=none;" vertex="1" parent="1">
          <mxGeometry x="249.94" y="110" width="30" height="30" as="geometry" />
        </mxCell>
        <mxCell id="VczyroX9Buosq_rVIC8h-16" value="" style="edgeStyle=orthogonalEdgeStyle;rounded=0;orthogonalLoop=1;jettySize=auto;html=1;" edge="1" parent="1" source="VczyroX9Buosq_rVIC8h-13" target="VczyroX9Buosq_rVIC8h-15">
          <mxGeometry relative="1" as="geometry" />
        </mxCell>
        <mxCell id="VczyroX9Buosq_rVIC8h-41" style="edgeStyle=orthogonalEdgeStyle;rounded=0;orthogonalLoop=1;jettySize=auto;html=1;entryX=0.5;entryY=0;entryDx=0;entryDy=0;" edge="1" parent="1" source="VczyroX9Buosq_rVIC8h-13" target="VczyroX9Buosq_rVIC8h-42">
          <mxGeometry relative="1" as="geometry">
            <mxPoint x="549.94" y="380" as="targetPoint" />
          </mxGeometry>
        </mxCell>
        <mxCell id="VczyroX9Buosq_rVIC8h-13" value="for (int i=0; i&amp;lt;N; i++)" style="shape=hexagon;perimeter=hexagonPerimeter2;whiteSpace=wrap;html=1;fixedSize=1;" vertex="1" parent="1">
          <mxGeometry x="77.94" y="300" width="192" height="40" as="geometry" />
        </mxCell>
        <mxCell id="VczyroX9Buosq_rVIC8h-18" value="" style="edgeStyle=orthogonalEdgeStyle;rounded=0;orthogonalLoop=1;jettySize=auto;html=1;" edge="1" parent="1" source="VczyroX9Buosq_rVIC8h-15" target="VczyroX9Buosq_rVIC8h-17">
          <mxGeometry relative="1" as="geometry" />
        </mxCell>
        <mxCell id="VczyroX9Buosq_rVIC8h-15" value="tmp = 0;" style="rounded=0;whiteSpace=wrap;html=1;" vertex="1" parent="1">
          <mxGeometry x="113.94" y="380" width="120" height="40" as="geometry" />
        </mxCell>
        <mxCell id="VczyroX9Buosq_rVIC8h-20" value="" style="edgeStyle=orthogonalEdgeStyle;rounded=0;orthogonalLoop=1;jettySize=auto;html=1;" edge="1" parent="1" source="VczyroX9Buosq_rVIC8h-17" target="VczyroX9Buosq_rVIC8h-19">
          <mxGeometry relative="1" as="geometry" />
        </mxCell>
        <mxCell id="VczyroX9Buosq_rVIC8h-30" style="edgeStyle=orthogonalEdgeStyle;rounded=0;orthogonalLoop=1;jettySize=auto;html=1;entryX=0.5;entryY=0;entryDx=0;entryDy=0;" edge="1" parent="1" source="VczyroX9Buosq_rVIC8h-17" target="VczyroX9Buosq_rVIC8h-29">
          <mxGeometry relative="1" as="geometry" />
        </mxCell>
        <mxCell id="VczyroX9Buosq_rVIC8h-17" value="for (int j=0; j&amp;lt;N-1; j++)" style="shape=hexagon;perimeter=hexagonPerimeter2;whiteSpace=wrap;html=1;fixedSize=1;" vertex="1" parent="1">
          <mxGeometry x="77.94" y="450" width="192" height="40" as="geometry" />
        </mxCell>
        <mxCell id="VczyroX9Buosq_rVIC8h-22" value="" style="edgeStyle=orthogonalEdgeStyle;rounded=0;orthogonalLoop=1;jettySize=auto;html=1;" edge="1" parent="1" source="VczyroX9Buosq_rVIC8h-19" target="VczyroX9Buosq_rVIC8h-21">
          <mxGeometry relative="1" as="geometry" />
        </mxCell>
        <mxCell id="VczyroX9Buosq_rVIC8h-19" value="matr[i][j] = rand()%101-50;" style="rounded=0;whiteSpace=wrap;html=1;" vertex="1" parent="1">
          <mxGeometry x="87.94" y="540" width="172" height="40" as="geometry" />
        </mxCell>
        <mxCell id="VczyroX9Buosq_rVIC8h-23" style="edgeStyle=orthogonalEdgeStyle;rounded=0;orthogonalLoop=1;jettySize=auto;html=1;entryX=0;entryY=0.5;entryDx=0;entryDy=0;" edge="1" parent="1" source="VczyroX9Buosq_rVIC8h-21" target="VczyroX9Buosq_rVIC8h-17">
          <mxGeometry relative="1" as="geometry">
            <Array as="points">
              <mxPoint x="173.94" y="660" />
              <mxPoint x="57.94" y="660" />
              <mxPoint x="57.94" y="470" />
            </Array>
          </mxGeometry>
        </mxCell>
        <mxCell id="VczyroX9Buosq_rVIC8h-21" value="tmp += matr[i][j];" style="rounded=0;whiteSpace=wrap;html=1;" vertex="1" parent="1">
          <mxGeometry x="113.94" y="600" width="120" height="40" as="geometry" />
        </mxCell>
        <mxCell id="VczyroX9Buosq_rVIC8h-25" value="1" style="text;html=1;align=center;verticalAlign=middle;resizable=0;points=[];autosize=1;strokeColor=none;fillColor=none;" vertex="1" parent="1">
          <mxGeometry x="143.94" y="488" width="30" height="30" as="geometry" />
        </mxCell>
        <mxCell id="VczyroX9Buosq_rVIC8h-26" value="1" style="text;html=1;align=center;verticalAlign=middle;resizable=0;points=[];autosize=1;strokeColor=none;fillColor=none;" vertex="1" parent="1">
          <mxGeometry x="143.94" y="340" width="30" height="30" as="geometry" />
        </mxCell>
        <mxCell id="VczyroX9Buosq_rVIC8h-27" value="0" style="text;html=1;align=center;verticalAlign=middle;resizable=0;points=[];autosize=1;strokeColor=none;fillColor=none;" vertex="1" parent="1">
          <mxGeometry x="259.94" y="288" width="30" height="30" as="geometry" />
        </mxCell>
        <mxCell id="VczyroX9Buosq_rVIC8h-28" value="0" style="text;html=1;align=center;verticalAlign=middle;resizable=0;points=[];autosize=1;strokeColor=none;fillColor=none;" vertex="1" parent="1">
          <mxGeometry x="259.94" y="440" width="30" height="30" as="geometry" />
        </mxCell>
        <mxCell id="VczyroX9Buosq_rVIC8h-31" style="edgeStyle=orthogonalEdgeStyle;rounded=0;orthogonalLoop=1;jettySize=auto;html=1;entryX=0;entryY=0.5;entryDx=0;entryDy=0;" edge="1" parent="1" source="VczyroX9Buosq_rVIC8h-29" target="VczyroX9Buosq_rVIC8h-13">
          <mxGeometry relative="1" as="geometry">
            <Array as="points">
              <mxPoint x="359.94" y="680" />
              <mxPoint x="39.94" y="680" />
              <mxPoint x="39.94" y="320" />
            </Array>
          </mxGeometry>
        </mxCell>
        <mxCell id="VczyroX9Buosq_rVIC8h-29" value="matr[i][N-1] = arr[i] - tmp;" style="rounded=0;whiteSpace=wrap;html=1;" vertex="1" parent="1">
          <mxGeometry x="289.94" y="540" width="140" height="40" as="geometry" />
        </mxCell>
        <mxCell id="VczyroX9Buosq_rVIC8h-32" value="&lt;font style=&quot;font-size: 20px;&quot;&gt;{&lt;/font&gt;" style="text;html=1;align=center;verticalAlign=middle;resizable=0;points=[];autosize=1;strokeColor=none;fillColor=none;" vertex="1" parent="1">
          <mxGeometry x="129.94" y="488" width="30" height="40" as="geometry" />
        </mxCell>
        <mxCell id="VczyroX9Buosq_rVIC8h-33" value="&lt;font style=&quot;font-size: 20px;&quot;&gt;}&lt;/font&gt;" style="text;html=1;align=center;verticalAlign=middle;resizable=0;points=[];autosize=1;strokeColor=none;fillColor=none;" vertex="1" parent="1">
          <mxGeometry x="189.94" y="630" width="30" height="40" as="geometry" />
        </mxCell>
        <mxCell id="VczyroX9Buosq_rVIC8h-34" value="&lt;font style=&quot;font-size: 20px;&quot;&gt;{&lt;/font&gt;" style="text;html=1;align=center;verticalAlign=middle;resizable=0;points=[];autosize=1;strokeColor=none;fillColor=none;" vertex="1" parent="1">
          <mxGeometry x="113.94" y="160" width="30" height="40" as="geometry" />
        </mxCell>
        <mxCell id="VczyroX9Buosq_rVIC8h-38" value="&lt;font style=&quot;font-size: 20px;&quot;&gt;}&lt;/font&gt;" style="text;html=1;align=center;verticalAlign=middle;resizable=0;points=[];autosize=1;strokeColor=none;fillColor=none;" vertex="1" parent="1">
          <mxGeometry x="369.94" y="590" width="30" height="40" as="geometry" />
        </mxCell>
        <mxCell id="VczyroX9Buosq_rVIC8h-39" value="&lt;font style=&quot;font-size: 20px;&quot;&gt;}&lt;/font&gt;" style="text;html=1;align=center;verticalAlign=middle;resizable=0;points=[];autosize=1;strokeColor=none;fillColor=none;" vertex="1" parent="1">
          <mxGeometry x="203.94" y="240" width="30" height="40" as="geometry" />
        </mxCell>
        <mxCell id="VczyroX9Buosq_rVIC8h-46" value="" style="edgeStyle=orthogonalEdgeStyle;rounded=0;orthogonalLoop=1;jettySize=auto;html=1;" edge="1" parent="1" source="VczyroX9Buosq_rVIC8h-42" target="VczyroX9Buosq_rVIC8h-45">
          <mxGeometry relative="1" as="geometry" />
        </mxCell>
        <mxCell id="VczyroX9Buosq_rVIC8h-50" style="edgeStyle=orthogonalEdgeStyle;rounded=0;orthogonalLoop=1;jettySize=auto;html=1;entryX=0.5;entryY=0;entryDx=0;entryDy=0;" edge="1" parent="1" source="VczyroX9Buosq_rVIC8h-42" target="VczyroX9Buosq_rVIC8h-51">
          <mxGeometry relative="1" as="geometry">
            <mxPoint x="565.94" y="560" as="targetPoint" />
            <Array as="points">
              <mxPoint x="699.94" y="400" />
              <mxPoint x="699.94" y="540" />
              <mxPoint x="565.94" y="540" />
            </Array>
          </mxGeometry>
        </mxCell>
        <mxCell id="VczyroX9Buosq_rVIC8h-42" value="for (int i=0; i&amp;lt;N; i++)" style="shape=hexagon;perimeter=hexagonPerimeter2;whiteSpace=wrap;html=1;fixedSize=1;" vertex="1" parent="1">
          <mxGeometry x="469.94" y="380" width="192" height="40" as="geometry" />
        </mxCell>
        <mxCell id="VczyroX9Buosq_rVIC8h-43" value="&lt;font style=&quot;font-size: 20px;&quot;&gt;{&lt;/font&gt;" style="text;html=1;align=center;verticalAlign=middle;resizable=0;points=[];autosize=1;strokeColor=none;fillColor=none;" vertex="1" parent="1">
          <mxGeometry x="119.94" y="335" width="30" height="40" as="geometry" />
        </mxCell>
        <mxCell id="VczyroX9Buosq_rVIC8h-44" value="&lt;font style=&quot;font-size: 20px;&quot;&gt;{&lt;/font&gt;" style="text;html=1;align=center;verticalAlign=middle;resizable=0;points=[];autosize=1;strokeColor=none;fillColor=none;" vertex="1" parent="1">
          <mxGeometry x="519.94" y="410" width="30" height="40" as="geometry" />
        </mxCell>
        <mxCell id="VczyroX9Buosq_rVIC8h-48" style="edgeStyle=orthogonalEdgeStyle;rounded=0;orthogonalLoop=1;jettySize=auto;html=1;entryX=0;entryY=0.5;entryDx=0;entryDy=0;" edge="1" parent="1" source="VczyroX9Buosq_rVIC8h-45" target="VczyroX9Buosq_rVIC8h-42">
          <mxGeometry relative="1" as="geometry">
            <Array as="points">
              <mxPoint x="565.94" y="520" />
              <mxPoint x="449.94" y="520" />
              <mxPoint x="449.94" y="400" />
            </Array>
          </mxGeometry>
        </mxCell>
        <mxCell id="VczyroX9Buosq_rVIC8h-45" value="cout &amp;lt;&amp;lt; arr[i] &amp;lt;&amp;lt; &quot; &quot;;" style="shape=parallelogram;perimeter=parallelogramPerimeter;whiteSpace=wrap;html=1;fixedSize=1;" vertex="1" parent="1">
          <mxGeometry x="491.94" y="460" width="148" height="40" as="geometry" />
        </mxCell>
        <mxCell id="VczyroX9Buosq_rVIC8h-47" value="1" style="text;html=1;align=center;verticalAlign=middle;resizable=0;points=[];autosize=1;strokeColor=none;fillColor=none;" vertex="1" parent="1">
          <mxGeometry x="539.94" y="420" width="30" height="30" as="geometry" />
        </mxCell>
        <mxCell id="VczyroX9Buosq_rVIC8h-49" value="&lt;font style=&quot;font-size: 20px;&quot;&gt;}&lt;/font&gt;" style="text;html=1;align=center;verticalAlign=middle;resizable=0;points=[];autosize=1;strokeColor=none;fillColor=none;" vertex="1" parent="1">
          <mxGeometry x="579.94" y="490" width="30" height="40" as="geometry" />
        </mxCell>
        <mxCell id="VczyroX9Buosq_rVIC8h-53" value="" style="edgeStyle=orthogonalEdgeStyle;rounded=0;orthogonalLoop=1;jettySize=auto;html=1;" edge="1" parent="1" source="VczyroX9Buosq_rVIC8h-51" target="VczyroX9Buosq_rVIC8h-52">
          <mxGeometry relative="1" as="geometry" />
        </mxCell>
        <mxCell id="VczyroX9Buosq_rVIC8h-69" style="edgeStyle=orthogonalEdgeStyle;rounded=0;orthogonalLoop=1;jettySize=auto;html=1;entryX=0.5;entryY=0;entryDx=0;entryDy=0;" edge="1" parent="1" source="VczyroX9Buosq_rVIC8h-51" target="VczyroX9Buosq_rVIC8h-68">
          <mxGeometry relative="1" as="geometry" />
        </mxCell>
        <mxCell id="VczyroX9Buosq_rVIC8h-51" value="for (int i=0; i&amp;lt;N; i++)" style="shape=hexagon;perimeter=hexagonPerimeter2;whiteSpace=wrap;html=1;fixedSize=1;" vertex="1" parent="1">
          <mxGeometry x="469.94" y="565" width="192" height="40" as="geometry" />
        </mxCell>
        <mxCell id="VczyroX9Buosq_rVIC8h-57" value="" style="edgeStyle=orthogonalEdgeStyle;rounded=0;orthogonalLoop=1;jettySize=auto;html=1;" edge="1" parent="1" source="VczyroX9Buosq_rVIC8h-52" target="VczyroX9Buosq_rVIC8h-56">
          <mxGeometry relative="1" as="geometry" />
        </mxCell>
        <mxCell id="VczyroX9Buosq_rVIC8h-62" style="edgeStyle=orthogonalEdgeStyle;rounded=0;orthogonalLoop=1;jettySize=auto;html=1;entryX=0.5;entryY=0;entryDx=0;entryDy=0;exitX=1;exitY=0.5;exitDx=0;exitDy=0;" edge="1" parent="1" source="VczyroX9Buosq_rVIC8h-52" target="VczyroX9Buosq_rVIC8h-61">
          <mxGeometry relative="1" as="geometry" />
        </mxCell>
        <mxCell id="VczyroX9Buosq_rVIC8h-52" value="for (int j=0; j&amp;lt;N-1; j++)" style="shape=hexagon;perimeter=hexagonPerimeter2;whiteSpace=wrap;html=1;fixedSize=1;" vertex="1" parent="1">
          <mxGeometry x="469.94" y="650" width="192" height="40" as="geometry" />
        </mxCell>
        <mxCell id="VczyroX9Buosq_rVIC8h-54" value="1" style="text;html=1;align=center;verticalAlign=middle;resizable=0;points=[];autosize=1;strokeColor=none;fillColor=none;" vertex="1" parent="1">
          <mxGeometry x="539.94" y="600" width="30" height="30" as="geometry" />
        </mxCell>
        <mxCell id="VczyroX9Buosq_rVIC8h-55" value="&lt;font style=&quot;font-size: 20px;&quot;&gt;{&lt;/font&gt;" style="text;html=1;align=center;verticalAlign=middle;resizable=0;points=[];autosize=1;strokeColor=none;fillColor=none;" vertex="1" parent="1">
          <mxGeometry x="519.94" y="600" width="30" height="40" as="geometry" />
        </mxCell>
        <mxCell id="VczyroX9Buosq_rVIC8h-60" style="edgeStyle=orthogonalEdgeStyle;rounded=0;orthogonalLoop=1;jettySize=auto;html=1;entryX=0;entryY=0.5;entryDx=0;entryDy=0;" edge="1" parent="1" source="VczyroX9Buosq_rVIC8h-56" target="VczyroX9Buosq_rVIC8h-52">
          <mxGeometry relative="1" as="geometry">
            <Array as="points">
              <mxPoint x="565.94" y="790" />
              <mxPoint x="449.94" y="790" />
              <mxPoint x="449.94" y="670" />
            </Array>
          </mxGeometry>
        </mxCell>
        <mxCell id="VczyroX9Buosq_rVIC8h-56" value="cout &amp;lt;&amp;lt; matr[i][j] &amp;lt;&amp;lt; &quot; &quot;;" style="shape=parallelogram;perimeter=parallelogramPerimeter;whiteSpace=wrap;html=1;fixedSize=1;" vertex="1" parent="1">
          <mxGeometry x="481.94" y="730" width="168" height="40" as="geometry" />
        </mxCell>
        <mxCell id="VczyroX9Buosq_rVIC8h-58" value="1" style="text;html=1;align=center;verticalAlign=middle;resizable=0;points=[];autosize=1;strokeColor=none;fillColor=none;" vertex="1" parent="1">
          <mxGeometry x="539.94" y="690" width="30" height="30" as="geometry" />
        </mxCell>
        <mxCell id="VczyroX9Buosq_rVIC8h-59" value="&lt;font style=&quot;font-size: 20px;&quot;&gt;{&lt;/font&gt;" style="text;html=1;align=center;verticalAlign=middle;resizable=0;points=[];autosize=1;strokeColor=none;fillColor=none;" vertex="1" parent="1">
          <mxGeometry x="529.94" y="685" width="30" height="40" as="geometry" />
        </mxCell>
        <mxCell id="VczyroX9Buosq_rVIC8h-61" value="cout &amp;lt;&amp;lt; endl;" style="shape=parallelogram;perimeter=parallelogramPerimeter;whiteSpace=wrap;html=1;fixedSize=1;" vertex="1" parent="1">
          <mxGeometry x="646.94" y="730" width="120" height="40" as="geometry" />
        </mxCell>
        <mxCell id="VczyroX9Buosq_rVIC8h-63" value="0" style="text;html=1;align=center;verticalAlign=middle;resizable=0;points=[];autosize=1;strokeColor=none;fillColor=none;" vertex="1" parent="1">
          <mxGeometry x="649.94" y="640" width="30" height="30" as="geometry" />
        </mxCell>
        <mxCell id="VczyroX9Buosq_rVIC8h-64" value="&lt;font style=&quot;font-size: 20px;&quot;&gt;}&lt;/font&gt;" style="text;html=1;align=center;verticalAlign=middle;resizable=0;points=[];autosize=1;strokeColor=none;fillColor=none;" vertex="1" parent="1">
          <mxGeometry x="569.94" y="770" width="30" height="40" as="geometry" />
        </mxCell>
        <mxCell id="VczyroX9Buosq_rVIC8h-65" value="&lt;font style=&quot;font-size: 20px;&quot;&gt;}&lt;/font&gt;" style="text;html=1;align=center;verticalAlign=middle;resizable=0;points=[];autosize=1;strokeColor=none;fillColor=none;" vertex="1" parent="1">
          <mxGeometry x="719.94" y="780" width="30" height="40" as="geometry" />
        </mxCell>
        <mxCell id="VczyroX9Buosq_rVIC8h-66" style="edgeStyle=orthogonalEdgeStyle;rounded=0;orthogonalLoop=1;jettySize=auto;html=1;entryX=0;entryY=0.5;entryDx=0;entryDy=0;" edge="1" parent="1" source="VczyroX9Buosq_rVIC8h-61" target="VczyroX9Buosq_rVIC8h-51">
          <mxGeometry relative="1" as="geometry">
            <Array as="points">
              <mxPoint x="706.94" y="820" />
              <mxPoint x="429.94" y="820" />
              <mxPoint x="429.94" y="585" />
            </Array>
          </mxGeometry>
        </mxCell>
        <mxCell id="VczyroX9Buosq_rVIC8h-67" value="0" style="text;html=1;align=center;verticalAlign=middle;resizable=0;points=[];autosize=1;strokeColor=none;fillColor=none;" vertex="1" parent="1">
          <mxGeometry x="646.94" y="550" width="30" height="30" as="geometry" />
        </mxCell>
        <mxCell id="VczyroX9Buosq_rVIC8h-68" value="return 0;" style="rounded=1;whiteSpace=wrap;html=1;" vertex="1" parent="1">
          <mxGeometry x="690" y="605" width="120" height="40" as="geometry" />
        </mxCell>
        <mxCell id="VczyroX9Buosq_rVIC8h-70" value="&lt;font style=&quot;font-size: 20px;&quot;&gt;}&lt;/font&gt;" style="text;html=1;align=center;verticalAlign=middle;resizable=0;points=[];autosize=1;strokeColor=none;fillColor=none;" vertex="1" parent="1">
          <mxGeometry x="780" y="640" width="30" height="40" as="geometry" />
        </mxCell>
      </root>
    </mxGraphModel>
  </diagram>
</mxfile>
